<?xml version="1.0" standalone="no"?>
<!DOCTYPE svg PUBLIC "-//W3C//DTD SVG 20010904//EN"
 "http://www.w3.org/TR/2001/REC-SVG-20010904/DTD/svg10.dtd">
<svg version="1.0" xmlns="http://www.w3.org/2000/svg"
 width="250.000000pt" height="50.000000pt" viewBox="0 0 1200.000000 2080.000000"
 preserveAspectRatio="xMidYMid meet">
<metadata>
Created by potrace 1.16, written by Peter Selinger 2001-2019
</metadata>
<g transform="translate(-100.00000,2080.000000) scale(0.100000,-0.100000)"
fill="#0080004D" stroke="none">
<path d="M1990 20679 c-290 -8 -379 -22 -615 -99 -171 -55 -396 -173 -557
-293 -123 -90 -313 -281 -410 -410 -193 -258 -301 -491 -375 -802 l-28 -120 0
-8520 0 -8520 27 -142 c16 -79 42 -186 59 -240 136 -425 425 -802 809 -1056
247 -163 491 -257 800 -307 125 -20 138 -20 8530 -20 7575 0 8418 2 8525 16
164 21 240 38 377 84 723 241 1249 883 1338 1630 8 70 10 2344 8 8595 l-3
8500 -27 110 c-154 620 -544 1118 -1093 1393 -199 100 -419 167 -625 192 -71
9 -2204 12 -8300 13 -4513 1 -8311 -1 -8440 -4z m16750 -783 c494 -111 876
-509 979 -1018 10 -51 22 -122 25 -158 12 -114 9 -14875 -2 -14873 -6 2 -50
28 -99 59 -86 56 -424 264 -626 386 -56 34 -124 76 -152 93 -77 49 -447 278
-675 417 -113 69 -378 233 -590 363 -605 373 -1220 747 -1281 778 -181 92
-435 -13 -509 -211 -33 -87 -25 -206 18 -295 20 -39 50 -81 74 -101 22 -20
203 -135 402 -257 409 -252 523 -322 669 -413 56 -35 125 -77 152 -93 28 -17
194 -119 370 -228 176 -109 412 -254 525 -323 113 -69 268 -164 345 -212 77
-48 235 -145 350 -215 338 -206 364 -221 490 -301 110 -70 242 -151 448 -275
43 -26 83 -49 89 -51 19 -7 11 -932 -8 -1028 -24 -118 -80 -277 -134 -378 -28
-50 -47 -92 -43 -92 4 0 -3 -10 -14 -23 -11 -12 -45 -60 -75 -107 -31 -47 -73
-101 -95 -121 -141 -133 -453 -274 -683 -309 -55 -8 -2288 -10 -8485 -8
l-8410 3 -96 27 c-452 124 -788 449 -913 881 -49 168 -57 268 -54 670 l3 368
190 116 c105 64 395 241 645 393 250 152 505 307 565 345 61 37 148 91 195
120 114 71 645 394 850 518 166 100 224 136 465 284 72 44 294 181 495 303
600 366 623 381 675 434 67 68 90 133 89 246 -3 227 -150 376 -369 374 -100 0
-137 -16 -364 -158 -91 -57 -296 -182 -456 -278 -338 -204 -627 -379 -955
-578 -129 -79 -307 -187 -395 -240 -595 -361 -1239 -757 -1527 -939 -54 -33
-100 -61 -103 -61 -3 0 -4 3378 -2 7508 l2 7507 28 122 c34 154 65 242 133
373 131 253 354 461 622 580 138 61 258 91 402 99 63 3 3850 5 8414 3 l8299
-2 107 -24z"/>
<path d="M10215 18240 c-346 -74 -599 -208 -955 -504 -81 -68 -109 -92 -260
-231 -192 -177 -610 -590 -860 -850 -528 -549 -1155 -1288 -1605 -1890 -656
-878 -1324 -1955 -1932 -3115 -141 -269 -575 -1134 -678 -1350 -38 -80 -93
-197 -123 -260 -239 -505 -391 -852 -423 -964 -84 -301 -57 -608 74 -837 79
-137 230 -314 481 -564 133 -132 300 -294 371 -360 72 -65 173 -160 225 -210
52 -50 124 -117 160 -149 36 -32 94 -86 130 -120 36 -34 126 -117 200 -186 74
-68 173 -160 220 -205 152 -144 796 -734 1075 -985 76 -69 166 -150 199 -181
34 -31 81 -73 106 -95 25 -21 47 -41 50 -44 6 -6 181 -163 230 -206 80 -71
260 -231 476 -424 127 -113 297 -263 380 -335 82 -71 151 -132 154 -135 20
-23 570 -487 680 -574 36 -28 108 -86 160 -129 128 -106 180 -130 289 -135 97
-4 161 14 245 69 116 77 175 259 131 407 -26 87 -85 148 -370 385 -280 233
-461 387 -775 662 -102 89 -255 222 -341 296 -85 74 -243 211 -350 306 -293
260 -299 266 -665 594 -88 79 -241 216 -339 304 -99 88 -206 185 -240 216 -33
31 -152 141 -265 244 -353 326 -792 733 -1020 950 -41 39 -147 138 -235 220
-450 420 -653 627 -712 722 -29 48 -43 135 -33 200 15 93 182 468 547 1228
169 352 754 1503 783 1540 4 6 67 120 140 255 672 1245 1414 2349 2232 3323
137 162 458 530 531 607 34 36 94 101 132 144 208 236 869 890 1169 1156 371
329 520 421 720 449 149 21 284 -18 500 -144 261 -152 389 -258 766 -634 162
-161 319 -321 349 -355 30 -33 88 -97 130 -141 616 -648 1388 -1630 1920
-2442 310 -472 635 -1002 839 -1368 52 -93 111 -199 132 -235 126 -219 480
-899 772 -1481 186 -372 338 -680 338 -683 0 -4 54 -120 120 -257 146 -303
218 -464 322 -719 114 -279 115 -319 11 -456 -66 -88 -174 -203 -288 -307 -60
-55 -142 -130 -180 -166 -39 -36 -117 -109 -175 -161 -379 -345 -718 -660
-1005 -931 -148 -141 -434 -410 -635 -599 -201 -189 -444 -418 -540 -510 -96
-91 -245 -231 -330 -310 -85 -79 -193 -180 -240 -224 -47 -45 -166 -156 -265
-246 -99 -91 -297 -273 -441 -405 -305 -282 -492 -451 -739 -672 -329 -293
-376 -355 -377 -497 0 -196 154 -360 353 -374 132 -9 188 19 375 184 61 55
159 142 219 194 269 235 819 737 1365 1245 102 95 255 237 340 315 85 79 253
236 374 349 120 113 265 249 321 301 124 115 368 346 559 531 78 75 290 274
471 444 182 169 357 333 390 364 33 31 110 101 170 156 273 246 723 675 778
742 143 173 258 354 300 469 74 206 56 396 -70 727 -164 433 -685 1526 -1186
2487 -169 323 -480 897 -581 1070 -627 1071 -1021 1660 -1701 2539 -374 485
-722 889 -1151 1336 -277 289 -687 691 -939 920 -60 55 -119 108 -130 119 -39
35 -261 213 -335 268 -101 74 -293 191 -393 238 -189 91 -430 122 -622 80z"/>
<path d="M11665 12211 c-63 -16 -134 -62 -188 -121 -46 -49 -61 -74 -78 -131
-40 -132 -9 -269 81 -359 52 -52 445 -311 1290 -851 381 -244 519 -334 520
-339 0 -3 -15 -14 -32 -24 -34 -20 -309 -197 -528 -341 -69 -45 -309 -203
-535 -350 -774 -506 -750 -489 -796 -582 -21 -42 -24 -62 -24 -158 0 -104 2
-113 32 -171 63 -121 180 -194 323 -202 117 -6 115 -7 553 278 376 244 531
346 832 545 160 105 351 231 425 280 395 257 610 405 658 452 63 62 100 138
115 233 18 117 -22 237 -110 331 -46 50 -233 178 -563 387 -74 47 -202 128
-285 180 -82 52 -186 118 -230 147 -44 28 -176 112 -293 186 -117 74 -308 196
-425 271 -263 170 -471 300 -517 324 -39 19 -174 29 -225 15z"/>
<path d="M8785 12201 c-76 -21 -153 -66 -515 -303 -69 -45 -249 -163 -400
-262 -1461 -953 -1488 -972 -1539 -1080 -73 -155 -40 -337 81 -457 28 -27 135
-105 237 -173 278 -184 1215 -806 1636 -1084 204 -135 403 -261 444 -281 66
-31 84 -35 155 -35 72 -1 89 3 147 31 80 39 150 111 187 191 24 50 27 69 27
157 0 118 -21 171 -95 245 -42 43 -335 241 -1025 695 -684 450 -804 530 -802
540 3 9 216 153 478 320 60 39 213 138 341 222 128 83 294 191 368 239 453
293 569 371 603 403 21 20 52 65 70 101 30 60 32 72 32 170 0 91 -3 112 -25
155 -31 65 -111 143 -181 178 -60 30 -167 43 -224 28z"/>
</g>
</svg>
