<?xml version="1.0" standalone="no"?>
<!DOCTYPE svg PUBLIC "-//W3C//DTD SVG 20010904//EN"
 "http://www.w3.org/TR/2001/REC-SVG-20010904/DTD/svg10.dtd">
<svg version="1.0" xmlns="http://www.w3.org/2000/svg"
 width="3264.000000pt" height="1312.000000pt" viewBox="0 0 3264.000000 1312.000000"
 preserveAspectRatio="xMidYMid meet">

<g transform="translate(0.000000,1312.000000) scale(0.100000,-0.100000)"
fill="#008000" stroke="none">
<path d="M1249 12450 c-382 -65 -679 -307 -808 -657 -66 -180 -61 237 -61
-4958 0 -3327 3 -4736 11 -4791 22 -161 86 -317 179 -443 159 -214 303 -320
538 -402 151 -52 -171 -49 4894 -50 4186 0 4701 1 4765 15 200 43 374 138 524
286 157 155 250 326 289 532 7 35 10 1678 10 4801 0 4732 0 4749 -20 4848 -65
316 -244 561 -522 712 -59 32 -138 63 -233 89 l-80 23 -4720 1 c-2596 1 -4741
-2 -4766 -6z m9460 -371 c212 -59 377 -196 472 -394 74 -153 68 220 69 -4367
0 -2273 1 -4136 0 -4141 0 -4 -30 13 -67 37 -134 87 -468 295 -853 531 -124
76 -263 161 -310 190 -47 29 -137 83 -200 120 -63 37 -187 115 -274 173 -88
58 -184 118 -215 134 -56 29 -56 29 -104 12 -41 -14 -57 -28 -98 -83 -61 -82
-89 -138 -89 -178 0 -39 57 -92 185 -170 49 -30 108 -67 130 -83 22 -15 135
-85 250 -155 116 -70 237 -144 270 -165 33 -20 132 -81 220 -135 150 -92 416
-258 530 -330 28 -18 179 -112 338 -209 184 -114 287 -184 288 -194 0 -10 1
-134 1 -277 1 -234 -1 -268 -20 -338 -63 -233 -262 -427 -505 -495 -58 -16
-346 -17 -4752 -17 -4505 0 -4693 1 -4754 18 -71 20 -177 71 -231 111 -118 88
-221 225 -261 347 -23 71 -24 85 -24 348 l0 274 290 174 c160 96 349 211 420
256 290 181 830 507 1335 807 228 136 300 191 300 228 0 24 -126 180 -190 235
-24 20 -53 37 -64 37 -33 -1 -94 -34 -188 -102 -48 -35 -159 -103 -245 -153
-369 -209 -1509 -903 -1625 -989 -15 -11 -31 -16 -35 -13 -11 12 -13 8208 -1
8327 22 229 129 406 323 536 33 22 85 51 115 63 131 52 -167 49 4839 50 l4655
1 75 -21z"/>
<path d="M5850 11136 c-128 -38 -280 -130 -450 -271 -95 -80 -438 -416 -605
-595 -49 -52 -126 -133 -170 -180 -552 -577 -1243 -1563 -1702 -2430 -150
-282 -280 -534 -313 -605 -21 -44 -79 -165 -130 -270 -133 -276 -243 -523
-310 -700 -31 -80 -34 -259 -6 -350 55 -185 177 -328 591 -694 82 -72 392
-359 510 -471 61 -58 164 -155 229 -215 66 -61 124 -115 130 -120 60 -57 480
-437 542 -490 44 -39 161 -142 260 -230 212 -191 527 -459 712 -608 117 -95
137 -107 171 -107 36 0 45 6 104 72 80 91 127 164 127 199 0 21 -12 37 -47 65
-129 102 -213 172 -378 313 -302 257 -445 382 -555 482 -58 52 -137 122 -176
155 -104 87 -339 299 -499 449 -77 72 -165 154 -195 181 -30 27 -86 79 -125
115 -140 132 -443 408 -634 578 -108 95 -222 199 -254 230 -82 78 -148 173
-154 220 -6 41 14 90 193 474 41 88 74 161 74 163 0 3 87 179 193 392 174 347
241 474 442 842 119 219 374 634 528 860 403 592 789 1054 1326 1590 270 269
418 400 548 484 95 61 140 76 229 76 62 0 84 -5 148 -34 173 -79 355 -226 641
-517 355 -362 645 -713 1034 -1256 234 -328 413 -607 633 -988 341 -591 849
-1622 985 -1998 l24 -68 -27 -49 c-34 -63 -65 -96 -194 -207 -58 -50 -155
-137 -215 -194 -61 -57 -261 -246 -445 -419 -184 -173 -387 -365 -450 -425
-211 -204 -537 -505 -1005 -930 -67 -60 -209 -191 -316 -290 -108 -99 -221
-203 -251 -230 -74 -66 -80 -90 -37 -161 19 -31 57 -81 84 -111 73 -80 136
-88 208 -26 166 140 249 213 427 372 113 101 241 218 285 260 89 85 252 234
425 391 63 58 144 132 180 165 35 33 98 91 140 130 116 108 234 220 495 471
269 258 685 648 787 737 121 106 251 287 298 415 36 97 19 186 -80 437 -101
256 -598 1261 -814 1649 -490 877 -917 1484 -1530 2176 -138 157 -628 648
-796 799 -186 166 -359 272 -503 306 -95 22 -246 19 -337 -9z"/>
<path d="M6718 7821 c-27 -22 -69 -101 -91 -176 -27 -88 -28 -101 -8 -127 24
-30 293 -206 711 -465 173 -107 324 -203 334 -213 19 -18 12 -23 -260 -202
-153 -101 -342 -222 -419 -268 -216 -129 -361 -225 -379 -251 -37 -53 -12
-152 63 -246 49 -63 98 -83 159 -65 47 14 282 154 494 294 424 280 835 557
850 575 49 54 79 176 58 237 -17 53 -73 96 -324 251 -212 131 -586 364 -860
536 -192 120 -228 139 -267 139 -21 0 -47 -8 -61 -19z"/>
<path d="M5134 7793 c-102 -56 -319 -190 -512 -317 -191 -125 -323 -210 -506
-324 -112 -69 -283 -207 -313 -251 -50 -74 -39 -159 31 -226 23 -22 167 -125
321 -228 154 -104 352 -238 440 -299 178 -122 464 -302 542 -342 28 -14 69
-28 91 -32 38 -6 44 -3 89 40 59 54 101 127 109 187 10 72 -15 97 -241 241
-589 376 -865 559 -865 573 0 7 42 36 93 66 95 55 155 92 512 319 392 249 478
313 490 369 9 40 -9 106 -41 153 -67 97 -150 121 -240 71z"/>
<path d="M13355 10278 c-3 -7 -4 -1262 -3 -2788 l3 -2775 443 -3 442 -2 0
1844 c0 1014 3 1851 6 1860 5 14 35 16 224 16 120 0 225 -3 234 -6 14 -5 16
-56 16 -464 0 -376 2 -460 14 -469 9 -8 82 -11 242 -9 l229 3 5 475 5 475 233
3 232 2 1 -567 c1 -313 3 -1135 4 -1828 2 -693 3 -1277 4 -1297 l1 -38 485 0
485 0 -2 2788 -3 2787 -482 3 -482 2 -3 -102 c-2 -57 -2 -255 -1 -441 1 -190
-2 -349 -7 -363 l-10 -24 -230 0 -230 0 0 -424 c0 -347 -2 -426 -14 -435 -9
-8 -78 -11 -227 -9 l-214 3 -5 430 -5 430 -247 3 c-137 1 -249 3 -250 5 -1 1
-5 209 -8 462 l-5 460 -438 3 c-345 2 -439 0 -442 -10z"/>
<path d="M22385 10268 c-3 -13 -4 -1267 -3 -2788 l3 -2765 1470 0 1470 0 0
465 0 465 -1050 5 -1050 5 -3 683 c-1 376 1 690 6 698 7 12 123 14 755 17 425
2 752 8 757 13 10 11 26 830 16 868 l-6 26 -755 0 c-737 0 -755 0 -765 19 -7
14 -9 247 -8 713 l3 693 1035 0 c569 0 1041 4 1048 8 9 6 12 108 12 453 l0
444 -1465 0 -1465 0 -5 -22z"/>
<path d="M17300 8851 c-12 -24 -14 -4109 -2 -4129 7 -10 100 -12 433 -10 l424
3 5 1180 5 1180 235 5 235 5 3 415 c1 228 6 418 10 422 8 8 962 12 969 4 2 -2
7 -192 10 -422 4 -288 9 -421 17 -426 6 -4 226 -8 488 -8 462 0 478 1 488 19
6 13 10 170 10 441 0 394 -1 422 -17 426 -10 2 -134 5 -275 7 -141 1 -260 6
-265 10 -4 5 -10 207 -13 450 l-5 442 -700 3 c-385 1 -710 0 -722 -3 l-23 -5
-2 -438 -3 -437 -220 0 -220 0 -3 429 c-1 297 -6 433 -13 443 -9 10 -92 13
-425 13 -398 0 -414 -1 -424 -19z"/>
<path d="M25885 8858 c-3 -7 -4 -942 -3 -2078 l3 -2065 443 -3 442 -2 0 1179
c0 1066 2 1179 16 1185 9 3 114 6 235 6 l219 0 0 419 c0 259 4 422 10 426 5 3
339 5 741 5 533 0 735 3 745 11 19 16 21 898 2 917 -19 19 -1501 17 -1517 -1
-7 -10 -12 -146 -13 -443 l-3 -429 -215 0 -215 0 -5 440 -5 440 -438 3 c-345
2 -439 0 -442 -10z"/>
<path d="M29305 8858 c-3 -7 -4 -942 -3 -2078 l3 -2065 440 0 440 0 7 50 c3
28 7 557 7 1178 1 620 2 1128 4 1129 1 1 110 5 242 8 l240 5 2 410 c1 226 2
416 3 422 0 10 158 13 738 15 l737 3 0 465 0 465 -749 3 c-517 1 -753 -1 -760
-8 -7 -7 -12 -154 -14 -433 -2 -232 -5 -428 -7 -434 -3 -10 -56 -13 -220 -13
l-215 0 0 433 c0 323 -3 436 -12 445 -18 18 -877 17 -883 0z"/>
<path d="M20290 6090 c-13 -8 -15 -96 -18 -672 -1 -365 0 -673 3 -686 l5 -22
623 2 622 3 3 680 c2 630 1 681 -15 693 -21 15 -1199 18 -1223 2z"/>
</g>
</svg>
